<?xml version="1.0" encoding="utf-8"?>
<!-- Generator: Adobe Illustrator 19.2.1, SVG Export Plug-In . SVG Version: 6.00 Build 0)  -->
<svg version="1.1" id="Final_1_" xmlns="http://www.w3.org/2000/svg" xmlns:xlink="http://www.w3.org/1999/xlink" x="0px" y="0px"
	 width="74px" height="74px" viewBox="0 0 74 74" style="enable-background:new 0 0 74 74;" xml:space="preserve">
<path style="fill:#888888;" d="M37,58.5c-11.85,0-21.5-9.65-21.5-21.5S25.15,15.5,37,15.5S58.5,25.15,58.5,37S48.85,58.5,37,58.5z
	 M37,17.5c-10.75,0-19.5,8.75-19.5,19.5S26.25,56.5,37,56.5S56.5,47.75,56.5,37S47.75,17.5,37,17.5z"/>
<path style="fill:#888888;" d="M23.39,43.27h-2.02V32h4.48c2.44,0,3.9,1.35,3.9,3.51c0,1.49-0.78,2.73-2.12,3.22l2.46,4.55h-2.3
	l-2.22-4.24h-2.18V43.27z M23.39,37.48h2.27c1.28,0,2.02-0.71,2.02-1.93c0-1.19-0.79-1.92-2.06-1.92h-2.23V37.48z"/>
<path style="fill:#888888;" d="M41.19,43.27v-8h-0.05l-3.26,7.91H36.5l-3.26-7.91h-0.05v8h-1.82V32h2.34l3.45,8.51h0.06L40.68,32H43
	v11.27H41.19z"/>
<path style="fill:#888888;" d="M44.68,43.27V32h4.68c2.05,0,3.37,1.1,3.37,2.81c0,1.21-0.9,2.27-2.05,2.45v0.06
	c1.53,0.15,2.6,1.25,2.6,2.74c0,1.98-1.46,3.2-3.87,3.2H44.68z M46.69,36.75h1.84c1.41,0,2.2-0.59,2.2-1.64
	c0-0.98-0.68-1.54-1.88-1.54h-2.16V36.75z M48.94,41.7c1.48,0,2.27-0.62,2.27-1.77c0-1.15-0.81-1.75-2.36-1.75h-2.16v3.52H48.94z"/>
<rect style="fill:none;" width="74" height="74"/>
</svg>
