<?xml version="1.0" encoding="utf-8"?>
<!-- Generator: Adobe Illustrator 19.2.1, SVG Export Plug-In . SVG Version: 6.00 Build 0)  -->
<svg version="1.1" id="Final_1_" xmlns="http://www.w3.org/2000/svg" xmlns:xlink="http://www.w3.org/1999/xlink" x="0px" y="0px"
	 width="74px" height="74px" viewBox="0 0 74 74" style="enable-background:new 0 0 74 74;" xml:space="preserve">
<path style="fill:#888888;" d="M52,57H22c-2.62,0-4-1.38-4-4V24c0-2.5,1.5-4,4-4h6.46c0.48-4.11,3.93-7,8.54-7
	c4.7,0,8.08,2.83,8.55,7H52c2.47,0,4,1.53,4,4v29C56,55.5,54.5,57,52,57z M22,22c-1.42,0-2,0.58-2,2v29c0,1.51,0.49,2,2,2h30
	c1.38,0,2-0.62,2-2V24c0-1.35-0.65-2-2-2H22z M30.48,20h13.05c-0.45-3.03-2.96-5-6.53-5C33.49,15,30.94,17.01,30.48,20z"/>
<path style="fill:#888888;" d="M38.79,45.22c-0.53-0.22-1.01-0.33-1.45-0.33c-0.47,0-0.96,0.11-1.5,0.33
	c-0.53,0.22-0.96,0.33-1.29,0.35c-0.5,0.02-1-0.2-1.5-0.68c-0.32-0.28-0.72-0.77-1.19-1.46c-0.51-0.74-0.93-1.59-1.26-2.57
	c-0.35-1.06-0.53-2.08-0.53-3.06c0-1.13,0.24-2.11,0.71-2.93c0.37-0.66,0.87-1.18,1.5-1.56c0.63-0.38,1.3-0.57,2.03-0.59
	c0.4,0,0.92,0.13,1.57,0.37c0.65,0.25,1.06,0.37,1.24,0.37c0.14,0,0.6-0.14,1.38-0.44c0.74-0.27,1.36-0.38,1.87-0.34
	c1.38,0.11,2.42,0.68,3.12,1.69c-1.23,0.77-1.85,1.85-1.84,3.24c0.01,1.08,0.39,1.97,1.14,2.69c0.34,0.33,0.72,0.59,1.14,0.77
	c-0.09,0.28-0.19,0.53-0.29,0.79c-0.25,0.59-0.55,1.13-0.89,1.63c-0.47,0.68-0.85,1.15-1.14,1.41c-0.45,0.43-0.94,0.65-1.46,0.66
	C39.77,45.55,39.32,45.44,38.79,45.22z"/>
<path style="fill:#888888;" d="M36.96,32.16c0-0.82,0.31-1.58,0.92-2.3c0.31-0.36,0.69-0.66,1.16-0.9c0.47-0.24,0.92-0.37,1.34-0.4
	c0.01,0.12,0.02,0.23,0.02,0.34c0,0.85-0.3,1.65-0.9,2.38c-0.73,0.88-1.57,1.27-2.52,1.19C36.97,32.39,36.96,32.28,36.96,32.16z"/>
<rect style="fill:none;" width="74" height="74"/>
</svg>
