<svg id="Light" xmlns="http://www.w3.org/2000/svg" width="40" height="54" viewBox="0 0 40 54">
  <defs>
    <style>
      .cls-1 {
        fill: #333;
        fill-rule: evenodd;
      }
    </style>
  </defs>
  <title>Vector Smart Object</title>
  <path id="iPad_Pro" data-name="iPad Pro" class="cls-1" d="M38.764,11H13.235A1.222,1.222,0,0,0,12,12.235V49.765A1.223,1.223,0,0,0,13.235,51H38.764A1.223,1.223,0,0,0,40,49.765V12.235A1.223,1.223,0,0,0,38.764,11ZM26,12.382a0.618,0.618,0,1,1-.618.618A0.618,0.618,0,0,1,26,12.382Zm0.016,37.629a1,1,0,1,1,1-1A1,1,0,0,1,26.016,50.011ZM38,47H14V15H38V47ZM12,50.93a1.232,1.232,0,0,1-1-1.214V47H2V7H32v3h2V4.5A1.485,1.485,0,0,0,32.5,3H1.5A1.484,1.484,0,0,0,0,4.5v45A1.485,1.485,0,0,0,1.5,51H12V50.93ZM17,4.25a0.75,0.75,0,1,1-.75.75A0.75,0.75,0,0,1,17,4.25Z"/>
</svg>
