<?xml version="1.0" encoding="utf-8"?>
<!-- Generator: Adobe Illustrator 19.2.1, SVG Export Plug-In . SVG Version: 6.00 Build 0)  -->
<svg version="1.1"
	 xmlns="http://www.w3.org/2000/svg" xmlns:xlink="http://www.w3.org/1999/xlink" xmlns:a="http://ns.adobe.com/AdobeSVGViewerExtensions/3.0/"
	 x="0px" y="0px" width="32px" height="54px" viewBox="0 0 32 54" style="enable-background:new 0 0 32 54;" xml:space="preserve">
<path id="iOS_10" style="fill-rule:evenodd;clip-rule:evenodd;fill:#EFEFEF;" d="M31.37,23.26c-0.31-0.79-1.03-1.9-2.05-2.69
	c-0.59-0.45-1.29-0.89-2.25-1.17C26.04,19.1,24.77,19,23.2,19H8.8c-1.57,0-2.84,0.1-3.87,0.41c-0.96,0.29-1.67,0.72-2.25,1.17
	c-1.02,0.78-1.74,1.9-2.05,2.69C0.01,24.86,0,26.66,0,27.8v14.4c0,1.14,0.01,2.94,0.63,4.54c0.31,0.79,1.03,1.9,2.05,2.69
	c0.59,0.45,1.29,0.89,2.25,1.17C5.96,50.9,7.23,51,8.8,51h14.4c1.57,0,2.84-0.1,3.87-0.41c0.96-0.29,1.67-0.72,2.25-1.17
	c1.02-0.78,1.74-1.9,2.05-2.69c0.63-1.59,0.63-3.4,0.63-4.54V27.8C32,26.66,31.99,24.86,31.37,23.26z M6.34,41H5.15v-7.11h1.19V41z
	 M5.75,32.69c-0.4,0-0.74-0.33-0.74-0.74c0-0.41,0.33-0.74,0.74-0.74c0.41,0,0.75,0.33,0.75,0.74C6.49,32.36,6.16,32.69,5.75,32.69z
	 M12.9,41.18c-3.14,0-5.12-2.24-5.12-5.81s1.98-5.82,5.12-5.82s5.12,2.25,5.12,5.82S16.04,41.18,12.9,41.18z M23.26,41.18
	c-2.36,0-4.02-1.3-4.13-3.24h1.07c0.12,1.35,1.39,2.27,3.16,2.27c1.69,0,2.9-0.92,2.9-2.19c0-1.05-0.73-1.68-2.4-2.1l-1.4-0.36
	c-2.09-0.53-3.02-1.41-3.02-2.9c0-1.82,1.64-3.12,3.86-3.12c2.2,0,3.8,1.3,3.87,3.09H26.1c-0.1-1.27-1.23-2.12-2.83-2.12
	c-1.56,0-2.72,0.87-2.72,2.11c0,0.97,0.7,1.54,2.36,1.96l1.22,0.31c2.27,0.57,3.22,1.44,3.22,3.01
	C27.35,39.88,25.76,41.18,23.26,41.18z M16.93,35.37c0,2.95-1.56,4.82-4.03,4.82s-4.02-1.87-4.02-4.82c0-2.96,1.55-4.83,4.02-4.83
	S16.93,32.41,16.93,35.37z"/>
</svg>
