<?xml version="1.0" encoding="utf-8"?>
<!-- Generator: Adobe Illustrator 19.2.1, SVG Export Plug-In . SVG Version: 6.00 Build 0)  -->
<svg version="1.1" xmlns="http://www.w3.org/2000/svg" xmlns:xlink="http://www.w3.org/1999/xlink" xmlns:a="http://ns.adobe.com/AdobeSVGViewerExtensions/3.0/"
	 x="0px" y="0px" width="31px" height="54px" viewBox="0 0 31 54" style="enable-background:new 0 0 31 54;" xml:space="preserve">
<g id="Dark">
</g>
<g id="Light">
	<path style="fill:#EFEFEF;" d="M15.46,21.5C6.93,21.5,0.5,27.94,0.5,36.48c0,8.56,6.43,15.02,14.95,15.02
		c8.58,0,15.05-6.47,15.05-15.04C30.5,27.93,24.03,21.5,15.46,21.5z M21.93,40.98c-0.07,0.3-0.19,0.58-0.38,0.83
		c-0.19,0.25-0.43,0.46-0.72,0.61c-0.29,0.16-0.59,0.25-0.91,0.31c-0.6,0.11-1.02,0.14-1.4,0.07c-0.37-0.07-0.69-0.23-0.95-0.44
		c-0.38-0.32-0.61-0.75-0.66-1.2c-0.06-0.53,0.13-1.09,0.56-1.51c0.22-0.21,0.49-0.38,0.85-0.51c0.38-0.14,0.8-0.22,1.44-0.34
		c0.17-0.03,0.34-0.06,0.51-0.09c0.22-0.04,0.41-0.09,0.57-0.27c0.16-0.18,0.16-0.39,0.16-0.6l0-5.35c0-0.41-0.2-0.52-0.62-0.45
		c-0.3,0.05-6.77,1.26-6.77,1.26c-0.37,0.08-0.49,0.19-0.49,0.61l0,7.84c0,0.31-0.02,0.58-0.09,0.89c-0.07,0.3-0.19,0.58-0.38,0.83
		c-0.19,0.25-0.43,0.46-0.72,0.61c-0.29,0.16-0.59,0.25-0.91,0.31c-0.6,0.11-1.02,0.14-1.4,0.07c-0.37-0.07-0.69-0.23-0.95-0.45
		c-0.38-0.32-0.59-0.75-0.65-1.2c-0.06-0.53,0.11-1.09,0.54-1.51c0.22-0.21,0.49-0.38,0.85-0.51c0.38-0.14,0.8-0.22,1.44-0.34
		c0.17-0.03,0.34-0.06,0.51-0.09c0.22-0.04,0.41-0.09,0.57-0.27c0.15-0.17,0.17-0.38,0.17-0.59c0-1.66,0-9.02,0-9.02
		c0-0.12,0.01-0.2,0.02-0.24c0.03-0.19,0.11-0.35,0.26-0.47c0.12-0.1,0.28-0.16,0.49-0.2l0,0l7.79-1.46
		C20.72,28.1,21.28,28,21.34,28c0.42-0.03,0.66,0.22,0.66,0.64l0,11.45C22,40.39,22,40.67,21.93,40.98z"/>
</g>
</svg>
